PathFileType	4	(X/Y/Z)	\\Move.snu.ac.kr\motion\Animal\091204_091205_Bird\091205_bird\Project 2\Capture day 2\Session 1\pigeon_013.trc
DataRate	CameraRate	NumFrames	NumMarkers	Units	OrigDataRate	OrigDataStartFrame	OrigNumFrames
240.0	240.0	15	14	mm	240.0	77	3189
Frame#	Time	14MarkersBird:Head			14MarkersBird:C_back			14MarkersBird:Spine			14MarkersBird:L-shoulder			14MarkersBird:L-elbow			14MarkersBird:L-wrist			14MarkersBird:L-hand			14MarkersBird:R-shoulder			14MarkersBird:R-elbow			14MarkersBird:R-Wrist			14MarkersBird:R-hand			14MarkersBird:C_Tail			14MarkersBird:L-Tale			14MarkersBird:R-Tale			
		X1	Y1	Z1	X2	Y2	Z2	X3	Y3	Z3	X4	Y4	Z4	X5	Y5	Z5	X6	Y6	Z6	X7	Y7	Z7	X8	Y8	Z8	X9	Y9	Z9	X10	Y10	Z10	X11	Y11	Z11	X12	Y12	Z12	X13	Y13	Z13	X14	Y14	Z14	

1645	6.850	117.59438	1676.77698	1150.54761	120.37338	1675.75256	1208.29407	127.35818	1662.12061	1264.97351	95.56067	1672.83252	1186.55237	94.14790	1696.69666	1215.61035	70.08688	1726.73169	1205.86780	72.10926	1753.95483	1216.10815	138.19426	1668.75928	1180.36609	136.98756	1695.76855	1198.34802	176.14740	1715.03796	1182.74548	193.31087	1750.11255	1195.88220	120.31767	1597.60864	1370.75159	36.69329	1642.68750	1307.21753	227.68141	1615.61804	1295.10950	
1646	6.854	114.80179	1675.83057	1141.84839	117.09678	1673.82764	1200.38818	124.79521	1660.94751	1256.19678	92.54338	1671.24390	1177.97998	87.70446	1693.21985	1205.52356	57.59452	1718.94019	1197.61023	52.42428	1746.09949	1206.10193	136.22069	1666.53271	1170.90662	140.82317	1692.95764	1190.30029	181.83990	1704.62634	1171.81226	205.90167	1735.39563	1180.55676	119.96566	1597.26038	1362.15137	34.67586	1639.27795	1298.58508	225.49922	1614.95227	1286.07349	
1647	6.858	111.91057	1674.89746	1133.02600	113.72338	1672.14233	1192.25061	122.33778	1660.28943	1247.30920	89.41479	1669.41870	1169.18567	82.08215	1689.92371	1195.77112	45.55003	1708.99304	1187.99353	33.19286	1734.09448	1194.99377	134.19342	1664.07813	1161.26428	145.43628	1688.54077	1181.25061	185.65695	1692.19104	1159.62915	216.07249	1716.36450	1163.75195	119.52190	1596.55811	1353.06763	32.85057	1635.23706	1290.14563	223.19255	1613.50049	1276.54529	
1648	6.863	108.91409	1673.96973	1124.05664	110.41557	1670.82874	1183.82141	120.00694	1660.24573	1238.28284	86.20303	1667.48242	1160.13831	77.00073	1687.61719	1187.55298	35.05939	1697.07080	1176.48706	16.45033	1718.34265	1181.83887	131.99963	1661.58264	1151.51245	150.00642	1682.11292	1169.96472	186.53580	1678.25159	1146.01880	221.55157	1694.18347	1145.36682	118.94756	1595.63586	1343.59778	31.31942	1631.18164	1281.95105	220.82942	1611.85413	1266.73901	
1649	6.867	105.82587	1673.02100	1114.92688	107.33978	1669.91418	1175.02808	117.81957	1660.88025	1229.09546	83.00344	1665.62622	1150.82678	70.53091	1683.69238	1178.28259	27.08880	1683.61951	1163.06702	3.68114	1699.67444	1166.30701	129.55310	1659.28882	1141.69299	151.94099	1675.08350	1157.24451	183.80539	1663.54993	1131.33081	220.97676	1670.29297	1125.97839	118.24254	1594.67542	1333.82947	30.10723	1627.73633	1273.99792	218.45850	1610.59009	1256.97754	
1650	6.871	102.67020	1672.00073	1105.63354	104.61906	1669.34875	1165.85535	115.80922	1662.03345	1219.69568	79.91154	1663.99414	1141.27039	62.83341	1676.71606	1165.91492	22.36376	1669.46387	1148.18018	-4.05139	1679.18323	1148.74622	126.85075	1657.37427	1131.82715	150.80444	1667.40735	1144.09021	177.30200	1649.09680	1116.37817	213.92352	1646.33118	1106.68933	117.42879	1593.85962	1323.84033	29.16129	1625.25427	1266.25220	216.08856	1609.96912	1247.54529	
1651	6.875	99.47964	1670.85266	1096.18494	102.27954	1669.05908	1156.38000	114.00031	1663.23596	1210.00806	76.97757	1662.65308	1131.50562	56.36682	1669.71423	1153.58777	21.18864	1655.78674	1132.55774	-6.07831	1658.31421	1130.02478	123.96464	1655.87695	1121.90552	148.59669	1659.99463	1131.24487	167.49635	1636.09912	1102.08716	200.86537	1624.13831	1088.74963	116.52439	1593.33032	1313.71521	28.40531	1623.73999	1258.66736	213.67461	1609.90369	1238.60059	
1652	6.879	96.29427	1669.52466	1086.58850	100.22908	1668.96826	1146.68811	112.22289	1664.24841	1200.16138	74.21349	1661.60596	1121.57776	51.70679	1663.41687	1142.01245	23.22915	1643.94348	1116.98889	-2.39698	1638.96106	1111.25269	120.99719	1654.71521	1111.88940	145.49675	1653.36487	1119.04517	155.51524	1625.74988	1089.09229	183.13274	1605.60779	1073.06519	115.51066	1593.15979	1303.55762	27.77432	1622.96082	1251.19202	211.13704	1610.08740	1230.13892	
1653	6.883	93.14636	1667.97742	1076.83350	98.30259	1668.97913	1136.80566	110.40310	1664.90857	1190.13000	71.59189	1660.79492	1111.51221	48.58851	1658.01111	1131.29272	27.42198	1635.20996	1102.13135	5.96445	1623.26514	1093.45483	118.04497	1653.76196	1101.73645	141.78995	1647.91406	1107.82678	142.96927	1618.94385	1077.57764	162.84523	1592.36011	1059.82471	114.33497	1593.35181	1293.47168	27.19658	1622.58618	1243.75305	208.39279	1610.13831	1221.98083	
1654	6.887	90.05587	1666.17798	1066.88733	96.34815	1668.96033	1126.68018	108.47604	1665.05786	1179.89514	69.05368	1660.10852	1101.29346	46.57356	1653.82068	1121.61572	32.15532	1630.45190	1088.44214	16.80886	1613.03479	1077.30603	115.18811	1652.90674	1091.43848	138.15311	1643.93396	1097.84326	131.63008	1616.03320	1067.33374	142.73184	1585.25830	1048.52759	112.94762	1593.86975	1283.52588	26.56558	1622.26196	1236.20068	205.38583	1609.69971	1213.80457	
1655	6.892	87.01647	1664.10181	1056.71790	94.26190	1668.73792	1116.24390	106.37039	1664.66162	1169.45862	66.53794	1659.41699	1090.89966	45.12929	1651.07581	1112.91003	35.74309	1629.80896	1076.21265	27.16559	1609.02332	1063.08435	112.46391	1652.05127	1081.02795	135.11942	1641.52795	1089.07178	123.00530	1616.72314	1057.89539	125.68672	1583.87732	1038.47595	111.33228	1594.64355	1273.70691	25.75930	1621.63562	1228.29028	202.10878	1608.51672	1205.23389	
1656	6.896	84.00517	1661.75476	1046.32397	91.99950	1668.13013	1105.47119	104.05173	1663.79309	1158.79980	64.01698	1658.60144	1080.36890	43.87070	1650.02222	1105.00012	37.02006	1632.68542	1065.54175	34.22269	1610.53577	1050.82642	109.85431	1651.07751	1070.55042	132.93855	1640.74744	1081.23303	117.92503	1620.18115	1048.73181	113.98991	1586.52478	1029.25195	109.49648	1595.51855	1263.90564	24.67282	1620.45886	1219.75647	198.61420	1606.50195	1195.96082	
1657	6.900	81.01019	1659.19043	1035.73621	89.58741	1667.01587	1094.38074	101.52790	1662.56238	1147.90564	61.49903	1657.55115	1069.78101	42.70521	1650.85986	1097.59644	35.70129	1638.11816	1056.27991	36.31516	1615.75330	1040.55493	107.30556	1649.86743	1060.03125	131.50809	1641.62317	1073.96082	116.38768	1625.34082	1039.47217	108.60558	1591.05896	1020.84381	107.43756	1596.20496	1253.95410	23.20226	1618.73730	1210.42151	195.01088	1603.78015	1185.84302	
1658	6.904	78.04639	1656.48279	1024.98511	87.10266	1665.36108	1083.00879	98.83457	1661.07031	1136.80505	59.00969	1656.17847	1059.17542	41.88250	1653.53333	1090.21130	32.37213	1645.22412	1048.11743	33.36341	1622.71558	1032.42004	104.75397	1648.38196	1049.47388	130.32555	1644.09448	1066.90161	117.73370	1631.29590	1030.05884	109.13908	1595.91882	1013.57532	105.13466	1596.31470	1243.69177	21.21858	1616.77612	1200.24219	191.45056	1600.68225	1174.92578	
1659	6.908	75.16600	1653.71448	1014.08948	84.62796	1663.21277	1071.38879	96.01095	1659.38904	1125.56519	56.58172	1654.46155	1048.50073	41.88872	1657.51868	1082.25684	28.21512	1653.40393	1040.76953	26.63214	1630.30176	1026.73096	102.12594	1646.73181	1038.87891	128.55246	1647.95300	1059.71375	120.90445	1637.61230	1020.73932	114.34655	1600.70630	1007.89966	102.57224	1595.48792	1233.01050	18.56843	1615.04968	1189.26672	188.11118	1597.67126	1163.39050	
